<?xml version="1.0" encoding="UTF-8"?>
<svg version="1.1" xmlns="http://www.w3.org/2000/svg" width="500" height="500">
<path d="M0 0 C1.73443359 -0.02416992 1.73443359 -0.02416992 3.50390625 -0.04882812 C18.39967946 -0.05714979 30.49866321 2.91151626 41.31640625 13.6015625 C50.98243242 24.86330836 55.34442999 38.10939823 55.23809814 52.74443054 C55.23965715 53.65035204 55.24121616 54.55627354 55.24282241 55.48964721 C55.24575979 58.50188617 55.2346374 61.51390533 55.22363281 64.52612305 C55.22310818 66.69502764 55.22354519 68.86393266 55.22486877 71.03283691 C55.22619933 75.6915708 55.22180989 80.35025183 55.21326447 85.00897789 C55.20086192 92.3750625 55.20784162 99.74104945 55.21868896 107.10713196 C55.24713092 128.04906864 55.2595311 148.99092032 55.22998047 169.93286133 C55.2138095 181.50789252 55.21889938 193.08271009 55.24777675 204.65771896 C55.26208381 210.78026989 55.26506042 216.90237607 55.24155426 223.02490807 C55.21946662 228.77810309 55.22489287 234.53060588 55.25153923 240.28377533 C55.2563182 242.39532775 55.25081577 244.50693207 55.23430824 246.61842537 C55.21326205 249.50030267 55.22902945 252.37972734 55.25396729 255.26152039 C55.23901695 256.09780383 55.22406661 256.93408728 55.20866323 257.79571265 C55.29058923 262.27527286 55.77860379 264.56605231 59.04662704 267.75318623 C60.50854666 269.02004654 60.50854666 269.02004654 62 270.3125 C62 270.9725 62 271.6325 62 272.3125 C62.66 272.3125 63.32 272.3125 64 272.3125 C64 272.9725 64 273.6325 64 274.3125 C64.66 274.3125 65.32 274.3125 66 274.3125 C67.47265625 276.140625 67.47265625 276.140625 69.0625 278.5625 C69.58972656 279.35140625 70.11695313 280.1403125 70.66015625 280.953125 C71.89430764 283.12638284 72.54673055 284.87267928 73 287.3125 C73.66 287.3125 74.32 287.3125 75 287.3125 C84.73447835 313.61764375 87.41353851 335.96010221 76 362.3125 C67.72107088 379.39172402 53.29004279 392.65331438 36 400.3125 C32.68240376 401.37734137 29.45834375 401.92261352 26 402.3125 C25.06800781 402.42207031 24.13601563 402.53164063 23.17578125 402.64453125 C15.09248291 403.39022298 6.98749188 403.44372705 -1.125 403.5 C-2.75115234 403.51957764 -2.75115234 403.51957764 -4.41015625 403.53955078 C-21.53051048 403.55770873 -33.01142256 398.63821829 -47 389.3125 C-47 388.6525 -47 387.9925 -47 387.3125 C-47.680625 387.1475 -48.36125 386.9825 -49.0625 386.8125 C-57.7267151 382.38821995 -64.74695437 370.87001255 -68.2890625 362.1328125 C-69.39149384 358.55622228 -70.27064978 354.97965871 -71 351.3125 C-71.14276367 350.59626465 -71.28552734 349.8800293 -71.43261719 349.14208984 C-78.98949897 309.37930624 -78.98949897 309.37930624 -70 293.3125 C-69.13181641 291.60513672 -69.13181641 291.60513672 -68.24609375 289.86328125 C-65.45726176 284.48438932 -62.57370126 279.21629048 -59 274.3125 C-58.34 274.3125 -57.68 274.3125 -57 274.3125 C-57 273.6525 -57 272.9925 -57 272.3125 C-56.34 272.3125 -55.68 272.3125 -55 272.3125 C-55 271.6525 -55 270.9925 -55 270.3125 C-54.34 270.3125 -53.68 270.3125 -53 270.3125 C-52.7525 269.69375 -52.505 269.075 -52.25 268.4375 C-50.77952822 265.93769797 -49.58596924 265.47933978 -47 264.3125 C-47.00368717 263.18219832 -47.00737434 262.05189665 -47.01117325 260.88734341 C-47.10010094 233.34294901 -47.1657644 205.79857331 -47.20724869 178.25406551 C-47.2278451 164.93355807 -47.2559098 151.61317324 -47.30175781 138.29272461 C-47.341715 126.67819689 -47.36745404 115.06373802 -47.37635398 103.44914347 C-47.38155366 97.30332415 -47.39371392 91.15770173 -47.42292023 85.01194572 C-47.45022964 79.21796961 -47.45841372 73.42427004 -47.45243073 67.63023567 C-47.45352404 65.51278298 -47.46138469 63.39532028 -47.4768219 61.27792358 C-47.60844199 42.2801475 -45.75117807 26.52272601 -32.1875 12 C-22.42436358 2.74971316 -13.1174011 -0.03560641 0 0 Z M-16.77734375 34.984375 C-21.5619193 41.25286239 -21.14999837 48.42328493 -21.15821838 55.99349976 C-21.16315636 56.96234466 -21.16809434 57.93118957 -21.17318195 58.92939341 C-21.18852631 62.17216553 -21.1969093 65.41491789 -21.20532227 68.65771484 C-21.21490319 70.9836952 -21.2249134 73.30967383 -21.23532104 75.63565063 C-21.26235289 81.94913248 -21.28337181 88.26262178 -21.30332303 94.57612944 C-21.32297739 100.50600038 -21.34712134 106.43585161 -21.37124526 112.3657058 C-21.41887282 124.10886272 -21.46215006 135.85203146 -21.50268555 147.59521484 C-21.54206511 159.00082316 -21.58349721 170.40642098 -21.62768555 181.81201172 C-21.63040982 182.51536633 -21.63313409 183.21872095 -21.63594092 183.94338934 C-21.6496208 187.47200648 -21.66334099 191.00062346 -21.67708123 194.52924037 C-21.79097002 223.79030473 -21.89772354 253.05139279 -22 282.3125 C-23.41152344 282.745625 -23.41152344 282.745625 -24.8515625 283.1875 C-32.71703843 285.99799264 -39.44363972 296.01820732 -43.3125 303.25 C-49.34419069 316.70737212 -50.01898872 331.37978731 -45 345.3125 C-43.57396863 348.49831475 -41.91974222 351.4001638 -40 354.3125 C-39.54625 355.00085938 -39.0925 355.68921875 -38.625 356.3984375 C-30.90893881 367.34350255 -20.53129038 373.13540321 -8 377.3125 C-4.1508334 377.5981634 -0.29607835 377.59027974 3.5625 377.625 C5.13354492 377.66850586 5.13354492 377.66850586 6.73632812 377.71289062 C15.93433139 377.78720638 23.32511011 375.59190323 30.875 370.25 C31.57367188 369.76402344 32.27234375 369.27804687 32.9921875 368.77734375 C33.65476562 368.29394531 34.31734375 367.81054688 35 367.3125 C35.74507813 366.79816406 36.49015625 366.28382813 37.2578125 365.75390625 C37.83273437 365.27824219 38.40765625 364.80257813 39 364.3125 C39 363.6525 39 362.9925 39 362.3125 C39.88171875 361.97605469 39.88171875 361.97605469 40.78125 361.6328125 C45.25484054 358.97071109 47.43439294 353.70983117 50 349.3125 C50.43054688 348.57902344 50.86109375 347.84554688 51.3046875 347.08984375 C56.77817745 337.04179468 56.68582651 322.28460437 53.75 311.41796875 C50.31097737 301.76362917 44.57936903 293.22538055 37 286.3125 C36.34 286.3125 35.68 286.3125 35 286.3125 C35 285.6525 35 284.9925 35 284.3125 C34.18790668 283.96594234 33.37581335 283.61938469 32.53911114 283.26232529 C30 281.3125 30 281.3125 29.52870238 279.51318026 C29.35570532 277.03602826 29.34089713 274.59846755 29.3742218 272.11529541 C29.36727726 271.16211984 29.36033271 270.20894428 29.35317773 269.2268846 C29.33585177 266.01836929 29.35425776 262.8110362 29.37231445 259.60253906 C29.36713889 257.30805886 29.35974143 255.01358275 29.35028076 252.71911621 C29.33468259 247.77044102 29.33491471 242.8221044 29.34728432 237.87342072 C29.36677352 230.04960211 29.35165923 222.22608628 29.33183289 214.40228271 C29.30773828 203.43320043 29.29965529 192.4642236 29.30541992 181.49511719 C29.31127731 170.21385723 29.31236217 158.93262614 29.3034668 147.65136719 C29.30292423 146.95715622 29.30238165 146.26294524 29.30182264 145.54769757 C29.29565339 137.96531468 29.28691283 130.38293906 29.27447033 122.80056381 C29.27337784 122.13364861 29.27228536 121.46673341 29.27115976 120.77960865 C29.26564763 117.45401189 29.25987866 114.12841587 29.25385827 110.80281997 C29.24077537 103.0247332 29.23953573 95.24675879 29.2479912 87.46866655 C29.25161542 82.62820408 29.2473165 77.7877703 29.2411499 72.9473114 C29.24006411 70.70234319 29.24242794 68.45737025 29.2484951 66.21240997 C29.25638057 63.14740306 29.2520618 60.08264223 29.24482727 57.01763916 C29.2501726 56.12959351 29.25551794 55.24154786 29.26102525 54.32659173 C29.21382138 45.41578864 27.22516188 38.89654039 21 32.3125 C10.24491417 23.14237418 -6.64746043 25.45560564 -16.77734375 34.984375 Z " fill="#090909" transform="translate(266,47.6875)"/>
<path d="M0 0 C1.585869 3.171738 1.37866445 6.63513822 1.5625 10.125 C1.60568359 10.87910156 1.64886719 11.63320312 1.69335938 12.41015625 C1.7994832 14.27321888 1.90025001 16.13658524 2 18 C2.87785156 17.26716797 2.87785156 17.26716797 3.7734375 16.51953125 C6.9204433 14.37183782 9.27818302 14.65538732 13 15 C13.99 15.99 13.99 15.99 15 17 C14.90485 20.83243068 14.38873316 22.56319769 11.8203125 25.44921875 C10.48613281 26.55716797 10.48613281 26.55716797 9.125 27.6875 C8.24070312 28.43386719 7.35640625 29.18023437 6.4453125 29.94921875 C5.03900535 31.1286297 3.6252205 32.29949982 2.19140625 33.4453125 C0.46732404 35.69509846 0.70385467 37.39893643 0.8125 40.1875 C0.83957031 41.08855469 0.86664063 41.98960938 0.89453125 42.91796875 C0.94673828 43.94857422 0.94673828 43.94857422 1 45 C1.49628906 44.43410156 1.99257812 43.86820313 2.50390625 43.28515625 C8.74737044 36.54411048 8.74737044 36.54411048 12.875 35.875 C16 36 16 36 18 38 C17.875 41.5 17.875 41.5 17 45 C14.9375 46.4375 14.9375 46.4375 13 47 C13 47.66 13 48.32 13 49 C12.34 49 11.68 49 11 49 C11 49.66 11 50.32 11 51 C10.34 51 9.68 51 9 51 C8.34 52.32 7.68 53.64 7 55 C6.34 55 5.68 55 5 55 C4.67 55.99 4.34 56.98 4 58 C3.34 58 2.68 58 2 58 C1.09761253 60.70716242 0.88148698 62.23776768 0.90234375 65.01171875 C0.90556641 65.76904297 0.90878906 66.52636719 0.91210938 67.30664062 C0.92048828 68.09232422 0.92886719 68.87800781 0.9375 69.6875 C0.94201172 70.48478516 0.94652344 71.28207031 0.95117188 72.10351562 C0.9629415 74.06904257 0.98087652 76.03453085 1 78 C3.29674382 76.73769041 5.58714709 75.46574267 7.875 74.1875 C8.52597656 73.83107422 9.17695313 73.47464844 9.84765625 73.10742188 C13.81543918 70.87810054 16.33807821 69.31887783 17.63842773 64.76342773 C17.90828491 63.48640991 17.90828491 63.48640991 18.18359375 62.18359375 C18.38919922 61.25482422 18.59480469 60.32605469 18.80664062 59.36914062 C19.22784518 57.4117783 19.64450046 55.45343158 20.05664062 53.49414062 C20.26353516 52.56666016 20.47042969 51.63917969 20.68359375 50.68359375 C20.86462646 49.83337646 21.04565918 48.98315918 21.23217773 48.10717773 C22 46 22 46 25 44 C28.6875 44.375 28.6875 44.375 32 45 C32.09688221 50.44693314 32.12862175 55.63904667 31 61 C35.87447038 58.99392516 35.87447038 58.99392516 39.03027344 55.01464844 C39.77153105 52.64852159 40.35418777 50.29907459 40.875 47.875 C41.26730868 46.24717372 41.66049607 44.61955888 42.0546875 42.9921875 C42.21437012 42.27401855 42.37405273 41.55584961 42.53857422 40.81591797 C43 39 43 39 44 37 C46.64 37 49.28 37 52 37 C52.5745952 40.73486879 53 44.21293268 53 48 C54.8136477 47.02296079 56.62588817 46.04330895 58.4375 45.0625 C59.44683594 44.51722656 60.45617187 43.97195312 61.49609375 43.41015625 C63.86670493 42.22300532 63.86670493 42.22300532 65 41 C67.9375 40.8125 67.9375 40.8125 71 41 C73 43 73 43 73.125 46.125 C73.08375 47.07375 73.0425 48.0225 73 49 C71.68 49.66 70.36 50.32 69 51 C69 51.66 69 52.32 69 53 C67.93458984 53.52400391 67.93458984 53.52400391 66.84765625 54.05859375 C65.46900391 54.74115234 65.46900391 54.74115234 64.0625 55.4375 C63.14597656 55.88996094 62.22945312 56.34242188 61.28515625 56.80859375 C59.09471096 57.80525394 59.09471096 57.80525394 58 59 C58.56589844 59.20496094 59.13179687 59.40992188 59.71484375 59.62109375 C60.44832031 59.89050781 61.18179688 60.15992188 61.9375 60.4375 C62.66839844 60.70433594 63.39929688 60.97117188 64.15234375 61.24609375 C66 62 66 62 67 63 C67.25 65.9375 67.25 65.9375 67 69 C62.78630074 71.80913284 59.82464904 70.96492981 55 70 C52.6419406 69.2515888 50.34209378 68.43638696 48.04296875 67.5234375 C43.56003323 66.37484599 39.90531586 68.95858489 36 71 C39.4588033 72.52187345 42.65367911 73.90851901 46.3125 74.875 C49 76 49 76 50.5625 78.375 C51 81 51 81 50.0625 83.3125 C47.01542128 85.80556441 44.88110754 85.26604366 41 85 C37.54225844 84.13866678 34.22023143 82.90229294 30.87304688 81.68945312 C26.5014722 80.19866637 23.46339023 79.71734214 19 81 C16.98079663 82.30406884 14.98075027 83.63823419 13 85 C9.625 86.25 9.625 86.25 7 87 C11.32829763 91.58627563 15.92177095 95.13177165 22 97 C27.26448048 96.60426738 32.20841203 94.50737888 37.11181641 92.66845703 C40.83402881 91.35071491 44.06332526 90.9321263 48 91 C50.125 92.625 50.125 92.625 51 95 C50.890625 97.5078125 50.890625 97.5078125 50 100 C47.6015625 101.328125 47.6015625 101.328125 44.625 102.25 C43.64789063 102.56453125 42.67078125 102.8790625 41.6640625 103.203125 C40.78492188 103.46609375 39.90578125 103.7290625 39 104 C37.515 104.495 37.515 104.495 36 105 C40.75061117 108.26919761 40.75061117 108.26919761 46.3125 108.9375 C49.2851971 108.18172955 52.14651715 107.31352741 55.0625 106.375 C59.06790174 105.11720616 61.88396614 104.73352804 66 106 C67 107 67 107 67.125 109.9375 C67 113 67 113 66 115 C64.15234375 115.8515625 64.15234375 115.8515625 61.9375 116.625 C61.20402344 116.88539063 60.47054687 117.14578125 59.71484375 117.4140625 C59.14894531 117.60742188 58.58304688 117.80078125 58 118 C58.74765625 118.39832031 59.4953125 118.79664063 60.265625 119.20703125 C61.25046875 119.73683594 62.2353125 120.26664062 63.25 120.8125 C64.22453125 121.33457031 65.1990625 121.85664063 66.203125 122.39453125 C68.65919646 123.80437115 70.88571232 125.11788877 73 127 C73.5 130 73.5 130 73 133 C71.4375 135 71.4375 135 69 136 C64.4888655 135.19444027 61.52171332 133.84009139 58 131 C56.01549844 129.96958573 54.01800895 128.96314063 52 128 C52.10699219 128.61488281 52.21398437 129.22976562 52.32421875 129.86328125 C52.44410156 130.67152344 52.56398437 131.47976562 52.6875 132.3125 C52.87892578 133.51326172 52.87892578 133.51326172 53.07421875 134.73828125 C53 137 53 137 51.71875 138.8125 C50 140 50 140 46.8125 139.6875 C45.884375 139.460625 44.95625 139.23375 44 139 C43.56033498 137.70906867 43.12344701 136.41719164 42.6875 135.125 C42.41035156 134.30902344 42.13320312 133.49304688 41.84765625 132.65234375 C41.28412905 130.88904897 40.77044618 129.1090199 40.30859375 127.31640625 C38.89360673 121.85931097 38.89360673 121.85931097 35.5 117.4375 C32.99907192 115.8892732 32.99907192 115.8892732 30 115 C30.495 116.175625 30.495 116.175625 31 117.375 C32.27410171 121.99361869 32.16923936 126.24249356 32 131 C29.25 132.1875 29.25 132.1875 26 133 C23.38165215 131.57589629 22.22946354 130.59548427 21.15039062 127.79516602 C20.98732422 126.95655029 20.82425781 126.11793457 20.65625 125.25390625 C20.46160156 124.33416016 20.26695312 123.41441406 20.06640625 122.46679688 C19.87949219 121.50837891 19.69257813 120.54996094 19.5 119.5625 C18.21775692 111.21253087 18.21775692 111.21253087 13 105 C11.03120677 103.93988057 9.03564133 102.92529151 7 102 C7 101.34 7 100.68 7 100 C5.35 99.67 3.7 99.34 2 99 C1.61178362 101.66898764 1.27965385 104.31887424 1 107 C0.86271484 108.16789062 0.86271484 108.16789062 0.72265625 109.359375 C0.33360057 113.81444932 0.33360057 113.81444932 2.33984375 117.609375 C3.8399204 118.80943632 5.41698627 119.91167806 7 121 C7 121.66 7 122.32 7 123 C7.66 123 8.32 123 9 123 C10.35386936 124.65002828 11.68678142 126.3174387 13 128 C13.66 128.33 14.32 128.66 15 129 C15 129.66 15 130.32 15 131 C15.66 131 16.32 131 17 131 C18.25 137.625 18.25 137.625 16 141 C13.63671875 141.43359375 13.63671875 141.43359375 11 141 C8.83203125 139.28515625 8.83203125 139.28515625 6.8125 137.0625 C4.21289233 134.12442614 4.21289233 134.12442614 1 132 C0.91909029 133.62418745 0.86085005 135.24951745 0.8125 136.875 C0.77769531 137.77992188 0.74289063 138.68484375 0.70703125 139.6171875 C0.80371094 140.40351563 0.90039062 141.18984375 1 142 C2.485 142.99 2.485 142.99 4 144 C4 144.66 4 145.32 4 146 C4.66 146 5.32 146 6 146 C6 146.66 6 147.32 6 148 C6.99 148.33 7.98 148.66 9 149 C9 149.66 9 150.32 9 151 C9.61875 151.268125 10.2375 151.53625 10.875 151.8125 C13 153 13 153 15 156 C14.64111965 158.96076291 14.15341979 159.84658021 12 162 C8.28458576 162.61923571 6.97506886 161.98494724 3.6875 160 C2.800625 159.34 1.91375 158.68 1 158 C1.02320313 158.95261719 1.04640625 159.90523437 1.0703125 160.88671875 C1.08835937 162.14097656 1.10640625 163.39523438 1.125 164.6875 C1.14820313 165.92886719 1.17140625 167.17023438 1.1953125 168.44921875 C1.01032021 171.81237857 0.45767895 173.9985587 -1 177 C-4.375 177.125 -4.375 177.125 -8 177 C-11.02093215 173.97906785 -10.46676834 170.43627928 -10.625 166.375 C-10.66367188 165.57320312 -10.70234375 164.77140625 -10.7421875 163.9453125 C-10.83653931 161.96392444 -10.91936215 159.98199355 -11 158 C-11.75667969 158.65484375 -12.51335937 159.3096875 -13.29296875 159.984375 C-16.49423778 162.36800389 -18.10547524 162.36228137 -22 162 C-23.1875 159.3125 -23.1875 159.3125 -24 156 C-22.2823677 151.85747505 -19.31157637 148.97192751 -16 146 C-15.34 146 -14.68 146 -14 146 C-14 145.34 -14 144.68 -14 144 C-12.68 143.67 -11.36 143.34 -10 143 C-10.33 139.37 -10.66 135.74 -11 132 C-11.66 132 -12.32 132 -13 132 C-13.20625 132.556875 -13.4125 133.11375 -13.625 133.6875 C-15.58139204 136.9777957 -17.85741004 138.84332061 -21 141 C-23.75 141 -23.75 141 -26 140 C-28 137 -28 137 -27.84765625 134.5222168 C-26.85533023 131.56953242 -25.84459518 130.57968739 -23.4375 128.64453125 C-13.41522152 120.35577237 -13.41522152 120.35577237 -9.51953125 108.44799805 C-9.49141931 104.92451829 -9.64278661 101.50718605 -10 98 C-20.1245067 101.68942639 -20.1245067 101.68942639 -27.20019531 109.30859375 C-28.92263592 114.38892362 -29.72400152 119.57511 -30.5534668 124.85913086 C-31.14917475 127.7152069 -32.14334448 129.75463581 -34 132 C-37.0625 132.4375 -37.0625 132.4375 -40 132 C-42 130 -42 130 -42.3125 127.4375 C-41.90939605 123.00335659 -40.55024555 119.15244344 -39 115 C-39.55429688 115.28875 -40.10859375 115.5775 -40.6796875 115.875 C-41.40414062 116.24625 -42.12859375 116.6175 -42.875 117 C-43.59429687 117.37125 -44.31359375 117.7425 -45.0546875 118.125 C-47 119 -47 119 -49 119 C-49.31424786 120.68717539 -49.62630155 122.37475949 -49.9375 124.0625 C-50.21787109 125.56490234 -50.21787109 125.56490234 -50.50390625 127.09765625 C-50.89940438 129.41147601 -51.16920045 131.66593196 -51.375 134 C-52 137 -52 137 -53.75 139 C-56 140 -56 140 -58.625 140 C-61 139 -61 139 -62.375 136.8125 C-63.0986 133.55630002 -62.62004588 131.24850126 -62 128 C-63.17755859 128.75796875 -63.17755859 128.75796875 -64.37890625 129.53125 C-75.09154953 136.15600118 -75.09154953 136.15600118 -81 135 C-83 133 -83 133 -83.125 129.875 C-83.08375 128.92625 -83.0425 127.9775 -83 127 C-82.34 127 -81.68 127 -81 127 C-81 126.34 -81 125.68 -81 125 C-76.71 122.69 -72.42 120.38 -68 118 C-70.64 116.68 -73.28 115.36 -76 114 C-76 111.36 -76 108.72 -76 106 C-71.04528111 104.67874163 -68.27906695 105.07518959 -63.5 107 C-58.87126602 108.8324714 -55.9111971 109.47335913 -51 108 C-49.31741302 107.02702579 -47.64789854 106.03063485 -46 105 C-47.39025391 104.47599609 -47.39025391 104.47599609 -48.80859375 103.94140625 C-50.00613281 103.48636719 -51.20367187 103.03132813 -52.4375 102.5625 C-53.63246094 102.11003906 -54.82742187 101.65757812 -56.05859375 101.19140625 C-59 100 -59 100 -60 99 C-60.1875 96.0625 -60.1875 96.0625 -60 93 C-58 91 -58 91 -56.14794922 90.91796875 C-51.28816612 91.50845968 -46.97164502 92.5829011 -42.36547852 94.22216797 C-35.00655477 96.8588139 -35.00655477 96.8588139 -27.49609375 95.8046875 C-24.79609285 94.02865495 -22.42989696 92.12214064 -20 90 C-18.515 89.505 -18.515 89.505 -17 89 C-16.67 88.34 -16.34 87.68 -16 87 C-18.31 86.34 -20.62 85.68 -23 85 C-23 84.34 -23 83.68 -23 83 C-23.8971875 82.814375 -23.8971875 82.814375 -24.8125 82.625 C-27 82 -27 82 -30 80 C-36.09892782 80.46181785 -41.6953311 82.33971879 -47.5 84.16015625 C-51.16706846 85.04008897 -54.24365934 85.2900116 -58 85 C-60 83 -60 83 -60.25 80 C-60 77 -60 77 -58 75 C-55.97786722 74.38943913 -53.93172022 73.85636005 -51.875 73.375 C-50.23144531 72.98441406 -50.23144531 72.98441406 -48.5546875 72.5859375 C-47.71164063 72.39257812 -46.86859375 72.19921875 -46 72 C-50.07613613 68.39099663 -50.07613613 68.39099663 -54.98046875 67.171875 C-55.70878906 67.36265625 -56.43710938 67.5534375 -57.1875 67.75 C-57.9815625 67.94722656 -58.775625 68.14445312 -59.59375 68.34765625 C-61.11770033 68.76080512 -62.6389786 69.18405362 -64.15625 69.62109375 C-68.4870028 70.82870751 -71.62502199 71.0937445 -76 70 C-76 67.36 -76 64.72 -76 62 C-72.86501708 60.14223235 -70.62528568 59.79859524 -67 60 C-69.48940965 57.17304327 -72.2389158 55.66788805 -75.5625 53.9375 C-80.79166667 51.20833333 -80.79166667 51.20833333 -83 49 C-83.125 45.875 -83.125 45.875 -83 43 C-82.34 43 -81.68 43 -81 43 C-81 42.34 -81 41.68 -81 41 C-75.70549486 40.54940382 -72.69418378 41.88903784 -68.125 44.5 C-67.53203125 44.83386719 -66.9390625 45.16773438 -66.328125 45.51171875 C-64.87895283 46.32979982 -63.43853019 47.16334743 -62 48 C-62.01160156 47.28972656 -62.02320312 46.57945312 -62.03515625 45.84765625 C-62.04417969 44.92855469 -62.05320312 44.00945312 -62.0625 43.0625 C-62.07410156 42.14597656 -62.08570312 41.22945312 -62.09765625 40.28515625 C-62 38 -62 38 -61 37 C-57.5625 36.8125 -57.5625 36.8125 -54 37 C-51.25000537 39.74999463 -51.09398702 42.74519473 -50.4375 46.4375 C-49.46621313 51.7775467 -49.46621313 51.7775467 -48 57 C-46.13977928 58.23277127 -46.13977928 58.23277127 -43.9375 59.1875 C-43.20402344 59.53167969 -42.47054687 59.87585938 -41.71484375 60.23046875 C-41.14894531 60.48441406 -40.58304688 60.73835938 -40 61 C-40.144375 60.41992188 -40.28875 59.83984375 -40.4375 59.2421875 C-42.53727334 50.40564137 -42.53727334 50.40564137 -42 46 C-39 44 -39 44 -36 43.9375 C-33 45 -33 45 -31.43359375 48.0546875 C-29.62001491 52.67241084 -28.62500094 57.4557129 -27.62695312 62.30273438 C-26.63112167 66.68189276 -25.57174963 69.23074292 -22 72 C-20.0366138 73.22019897 -20.0366138 73.22019897 -18 74.125 C-17.01 74.59292969 -17.01 74.59292969 -16 75.0703125 C-15.01 75.53050781 -15.01 75.53050781 -14 76 C-12.6648174 76.66295525 -11.33094817 77.32858418 -10 78 C-9.01953002 66.13124187 -9.01953002 66.13124187 -14.078125 55.79296875 C-17.00076659 52.76558954 -20.11829463 49.98474129 -23.39013672 47.34008789 C-27.91622441 43.57246652 -27.91622441 43.57246652 -28.375 40.4375 C-28.189375 39.2309375 -28.189375 39.2309375 -28 38 C-25 36 -25 36 -21.6875 35.9375 C-17.28028228 37.20737629 -15.93237425 38.83562018 -13.26171875 42.40625 C-12.07169851 44.14068621 -12.07169851 44.14068621 -10 45 C-9.66598807 39.74422404 -9.65561166 35.57245422 -13.1875 31.44140625 C-14.93521039 29.93502215 -16.72367663 28.47426544 -18.5546875 27.0703125 C-21.13110204 24.88900307 -22.54468207 23.03313736 -24 20 C-23.6875 17.1875 -23.6875 17.1875 -23 15 C-17.140625 14.609375 -17.140625 14.609375 -15 15 C-12.734375 17.015625 -12.734375 17.015625 -11 19 C-10.93941406 17.79601562 -10.87882812 16.59203125 -10.81640625 15.3515625 C-10.73200268 13.77602923 -10.64735459 12.20050904 -10.5625 10.625 C-10.52318359 9.8309375 -10.48386719 9.036875 -10.44335938 8.21875 C-10.11328125 2.2265625 -10.11328125 2.2265625 -9 0 C-5.49270578 -1.16909807 -3.55692677 -0.85056945 0 0 Z M0 156 C1 158 1 158 1 158 Z " fill="#181818" transform="translate(139,86)"/>
<path d="M0 0 C0.82306641 0.00708984 1.64613281 0.01417969 2.49414062 0.02148438 C3.34041016 0.05435547 4.18667969 0.08722656 5.05859375 0.12109375 C5.90873047 0.12689453 6.75886719 0.13269531 7.63476562 0.13867188 C11.79883823 0.22032036 14.86956234 0.32547378 18.49609375 2.55859375 C19.80903549 5.18447722 19.60005232 7.08773505 19.57356262 10.02897644 C19.56600952 11.19117706 19.55845642 12.35337769 19.55067444 13.55079651 C19.53102882 15.47314369 19.53102882 15.47314369 19.51098633 17.43432617 C19.50092523 18.79270002 19.49146911 20.15107846 19.48257446 21.50946045 C19.46829208 23.68229256 19.45362727 25.85511534 19.43721449 28.02793252 C19.3968921 33.42010932 19.37612324 38.81210565 19.36735535 44.204422 C19.36542993 45.37760956 19.36542993 45.37760956 19.36346561 46.57449788 C19.35858477 49.80215508 19.35440878 53.02981271 19.35067904 56.25747144 C19.33937905 65.42318727 19.30861745 74.58786309 19.21850586 83.75317383 C19.14707676 91.0309886 19.11803924 98.30757821 19.13866919 105.58573419 C19.1480026 109.4373453 19.13602452 113.28622217 19.07270241 117.1373806 C19.01356974 120.7641417 19.01087114 124.38664348 19.05069351 128.0136261 C19.05763584 129.97227145 19.00515541 131.93084769 18.95069885 133.88874817 C19.022597 137.49300551 19.18814139 140.19493331 20.49609375 143.55859375 C23.38628706 146.03307004 26.15337908 147.59112253 29.6042738 149.17926502 C33.48567578 151.03060063 35.17806452 152.99876314 37.49609375 156.55859375 C37.49609375 157.21859375 37.49609375 157.87859375 37.49609375 158.55859375 C38.15609375 158.55859375 38.81609375 158.55859375 39.49609375 158.55859375 C46.16855554 170.06283822 47.61755033 181.67099581 44.49609375 194.55859375 C41.25265248 206.15148781 33.81773522 213.64710818 23.49609375 219.55859375 C14.35953174 224.00085321 1.21672745 224.30365783 -8.50390625 221.43359375 C-19.73853454 216.81781624 -28.24172734 208.35158475 -33.671875 197.62109375 C-37.05507527 189.23456914 -37.09881259 176.54257934 -33.87890625 168.05859375 C-33.1359084 166.53390024 -32.3442732 165.03186206 -31.50390625 163.55859375 C-31.09140625 162.80449219 -30.67890625 162.05039062 -30.25390625 161.2734375 C-25.30856412 153.0827146 -18.69778506 146.42219613 -9.50390625 143.55859375 C-9.50851521 142.85198766 -9.51312418 142.14538157 -9.51787281 141.41736317 C-9.62829163 124.22455669 -9.7110333 107.03184028 -9.76296711 89.83875751 C-9.78874947 81.5242928 -9.82390036 73.21006476 -9.88110352 64.89575195 C-9.93093781 57.64902771 -9.96319704 50.40247487 -9.97434872 43.15558404 C-9.98086756 39.31826732 -9.99618844 35.48144095 -10.03255653 31.64428139 C-10.06651702 28.03184891 -10.07695949 24.42010831 -10.06944466 20.80753136 C-10.07147422 18.85104927 -10.09836933 16.89464241 -10.12600708 14.93835449 C-10.06971887 5.37294618 -10.06971887 5.37294618 -7.10894775 2.26882935 C-4.41952062 0.50319375 -3.17094471 -0.05731657 0 0 Z " fill="#060606" transform="translate(264.50390625,191.44140625)"/>
<path d="M0 0 C0.71873795 -0.0033284 1.43747589 -0.0066568 2.17799377 -0.01008606 C3.6968624 -0.01514418 5.21574211 -0.01749473 6.73461914 -0.01733398 C9.05438597 -0.01951992 11.37367669 -0.03768535 13.69335938 -0.05664062 C15.17057129 -0.05957492 16.64778547 -0.06155947 18.125 -0.0625 C19.16266762 -0.07327827 19.16266762 -0.07327827 20.22129822 -0.08427429 C23.83669072 -0.06718004 26.61315879 0.06614016 29.62890625 2.16796875 C31.17477501 5.25970627 30.92250146 7.76226427 30.62890625 11.16796875 C29.10351562 13.36352539 29.10351562 13.36352539 26.62890625 15.16796875 C23.85642983 15.55397411 21.49005226 15.70651108 18.72265625 15.6640625 C17.96094116 15.66551773 17.19922607 15.66697296 16.41442871 15.66847229 C14.80733405 15.66681564 13.20022315 15.65528035 11.59326172 15.63452148 C9.13700799 15.60556426 6.68291356 15.61391621 4.2265625 15.62695312 C2.66274995 15.62071526 1.09894421 15.61232393 -0.46484375 15.6015625 C-1.19723267 15.60449814 -1.92962158 15.60743378 -2.6842041 15.61045837 C-5.85978756 15.55187093 -8.05223233 15.34981891 -10.83642578 13.76196289 C-12.37109375 12.16796875 -12.37109375 12.16796875 -12.83203125 10.23046875 C-12.80367188 9.54984375 -12.7753125 8.86921875 -12.74609375 8.16796875 C-12.73320312 7.48734375 -12.7203125 6.80671875 -12.70703125 6.10546875 C-12.37109375 4.16796875 -12.37109375 4.16796875 -10.37109375 1.16796875 C-6.85216383 -0.00500789 -3.66195965 0.00587359 0 0 Z " fill="#191919" transform="translate(345.37109375,209.83203125)"/>
<path d="M0 0 C1.2148407 -0.00430527 1.2148407 -0.00430527 2.45422363 -0.00869751 C4.16561584 -0.01073792 5.87703138 -0.00520959 7.58837891 0.00732422 C10.2091889 0.02337893 12.82845677 0.00747556 15.44921875 -0.01171875 C17.11198257 -0.00973631 18.77474544 -0.00589263 20.4375 0 C21.22193481 -0.00607269 22.00636963 -0.01214539 22.8145752 -0.0184021 C28.19011919 0.05115139 28.19011919 0.05115139 30.71289062 1.70849609 C32.43910953 4.60871145 32.06338574 7.12439799 31.71875 10.3984375 C30.72875977 12.59008789 30.72875977 12.59008789 28.71875 14.3984375 C25.74826378 14.79092443 23.15336224 14.9357475 20.18359375 14.89453125 C19.34913223 14.89598648 18.51467072 14.89744171 17.65492249 14.89894104 C15.89222723 14.8972819 14.12951751 14.88571884 12.36694336 14.86499023 C9.66262626 14.83600584 6.96026528 14.84438563 4.25585938 14.85742188 C2.54426127 14.85118543 0.83266937 14.84279523 -0.87890625 14.83203125 C-1.69037613 14.83496689 -2.50184601 14.83790253 -3.33790588 14.84092712 C-5.61352539 14.80249023 -5.61352539 14.80249023 -9.28125 14.3984375 C-11.26069936 11.42926347 -11.57475581 10.74141471 -11.59375 7.3984375 C-11.61050781 6.7178125 -11.62726563 6.0371875 -11.64453125 5.3359375 C-10.50373317 -0.74831894 -5.08442768 -0.03936104 0 0 Z " fill="#0C0C0C" transform="translate(344.28125,257.6015625)"/>
</svg>
